<svg xmlns="http://www.w3.org/2000/svg" width="1200" height="1200" viewBox="0 0 1200 1200" fill="none">
    <defs>
        <linearGradient id="diagonalGradient1" gradientUnits="userSpaceOnUse" x1="300" y1="300" x2="900" y2="900">
            <stop offset="0" stop-color="#C9C9C9" stop-opacity="0"></stop>
            <stop offset="0.208" stop-color="#C9C9C9"></stop>
            <stop offset="0.792" stop-color="#C9C9C9"></stop>
            <stop offset="1" stop-color="#C9C9C9" stop-opacity="0"></stop>
        </linearGradient>
        <linearGradient id="diagonalGradient2" gradientUnits="userSpaceOnUse" x1="900" y1="300" x2="300" y2="900">
            <stop offset="0" stop-color="#C9C9C9" stop-opacity="0"></stop>
            <stop offset="0.208" stop-color="#C9C9C9"></stop>
            <stop offset="0.792" stop-color="#C9C9C9"></stop>
            <stop offset="1" stop-color="#C9C9C9" stop-opacity="0"></stop>
        </linearGradient>
        <linearGradient id="horizontalGradient" gradientUnits="userSpaceOnUse" x1="300" y1="600" x2="900" y2="600">
            <stop offset="0" stop-color="#C9C9C9" stop-opacity="0"></stop>
            <stop offset="0.208" stop-color="#C9C9C9"></stop>
            <stop offset="0.792" stop-color="#C9C9C9"></stop>
            <stop offset="1" stop-color="#C9C9C9" stop-opacity="0"></stop>
        </linearGradient>
        <linearGradient id="verticalGradient" gradientUnits="userSpaceOnUse" x1="600" y1="300" x2="600" y2="900">
            <stop offset="0" stop-color="#C9C9C9" stop-opacity="0"></stop>
            <stop offset="0.208" stop-color="#C9C9C9"></stop>
            <stop offset="0.792" stop-color="#C9C9C9"></stop>
            <stop offset="1" stop-color="#C9C9C9" stop-opacity="0"></stop>
        </linearGradient>
    </defs>
    <rect width="1200" height="1200" fill="#EAEAEA"></rect>
    <g opacity="0.75">
        <circle cx="600" cy="600" r="150" fill="#FAFAFA" stroke="#C9C9C9" stroke-width="2.418"></circle>
        <path d="M300 300L900 900" stroke="url(#diagonalGradient1)" stroke-width="2"></path>
        <path d="M900 300L300 900" stroke="url(#diagonalGradient2)" stroke-width="2"></path>
        <path d="M300 600L900 600" stroke="url(#horizontalGradient)" stroke-width="2"></path>
        <path d="M600 300L600 900" stroke="url(#verticalGradient)" stroke-width="2"></path>
        <circle cx="600" cy="600" r="50" fill="#FFFFFF" stroke="#C9C9C9" stroke-width="2.418"></circle>
        <g transform="translate(576, 576) scale(2)">
            <path d="M6 4h12" stroke="#a8a8a8" stroke-width="1.5" stroke-linecap="round" stroke-linejoin="round"></path>
            <path d="M12 12c-2-2.67-4-4-6-4a4 4 0 1 0 0 8c2 0 4-1.33 6-4Zm0 0c2 2.67 4 4 6 4a4 4 0 0 0 0-8c-2 0-4 1.33-6 4Z"
                  stroke="#a8a8a8" stroke-width="1.5" stroke-linecap="round" stroke-linejoin="round"></path>
            <path d="M6 20h12" stroke="#a8a8a8" stroke-width="1.5" stroke-linecap="round"
                  stroke-linejoin="round"></path>
        </g>
    </g>
</svg>
